<svg height="48" viewBox="0 0 48 48" width="48" xmlns="http://www.w3.org/2000/svg"><path d="m24 48c-13.255 0-24-10.745-24-24s10.745-24 24-24 24 10.745 24 24-10.745 24-24 24zm12-23.709c0-2.227-.6-4.378-1.65-6.222a12.243 12.243 0 0 0 -4.35-4.456c-1.8-1.075-3.825-1.613-6-1.613s-4.125.538-6 1.613c-1.875 1.076-3.375 2.689-4.425 4.533-1.05 1.843-1.575 3.918-1.575 6.144 0 2.69.75 4.917 2.325 7.068 1.575 2.15 3.525 3.61 5.925 4.456.225.076.45.076.6-.077.15-.077.225-.308.225-.461v-.845-1.46l-.375.077c-.225.077-.525.077-.9.077-.3 0-.675 0-1.05-.077a2.598 2.598 0 0 1 -1.05-.46c-.3-.231-.525-.616-.675-1l-.15-.384c-.15-.307-.3-.537-.525-.845-.225-.307-.45-.538-.675-.614l-.075-.077c-.075 0-.15-.077-.225-.154s-.15-.153-.15-.23 0-.077.075-.154.225-.077.45-.077l.375-.077c.15.077.45.154.75.385.3.23.525.537.75.845.3.46.525.768.9.998s.675.308 1.05.308.675 0 .9-.077l.675-.23c.075-.692.3-1.23.75-1.614-.6-.077-1.125-.154-1.575-.307-.525-.154-.975-.308-1.5-.615a4.37 4.37 0 0 1 -1.275-1.075c-.375-.461-.6-.999-.825-1.69-.225-.692-.3-1.46-.3-2.382 0-1.306.375-2.381 1.2-3.303-.45-.922-.375-1.997.075-3.227.3-.076.75 0 1.35.23.6.231.975.462 1.275.615.3.23.525.308.675.461.975-.23 1.95-.384 3-.384s2.025.077 3 .384l.525-.307c.375-.23.9-.46 1.425-.691.525-.154.975-.23 1.275-.154.525 1.152.525 2.228.15 3.226.825.922 1.2 1.998 1.2 3.304 0 .845-.075 1.69-.3 2.381-.225.692-.45 1.306-.825 1.69a4.37 4.37 0 0 1 -1.275 1.076c-.525.307-1.05.46-1.5.614s-.975.23-1.575.308c.525.537.825 1.306.825 2.304v3.38c0 .154.075.308.225.461.15.077.3.154.6.077 2.4-.845 4.425-2.304 5.925-4.455 1.575-2.15 2.325-4.532 2.325-7.222z" fill="#333" fill-rule="evenodd"/></svg>