<svg xmlns="http://www.w3.org/2000/svg" width="48" height="48" viewBox="0 0 48 48">
    <path fill="#333" fill-rule="evenodd" d="M24 48C10.745 48 0 37.255 0 24S10.745 0 24 0s24 10.745 24 24-10.745 24-24 24zm-5.794-28.898h-4.973v14.744h4.973V19.102zm.31-4.555c0-.772-.155-1.39-.698-1.852-.544-.463-1.166-.695-2.02-.695-.855 0-1.477.154-2.021.695-.544.54-.777 1.08-.777 1.852s.31 1.39.777 1.853c.466.463 1.088.695 1.943.695.854 0 1.476-.232 2.02-.695.544-.54.777-1.158.777-1.853zM36 25.432c0-2.239-.466-3.86-1.476-4.786-1.01-1.158-2.41-1.699-4.119-1.699-.621 0-1.165.078-1.71.232-.543.154-.931.309-1.32.617a9.33 9.33 0 0 0-.855.772c-.233.232-.388.54-.621.85v-2.162h-4.973V34h4.973v-8.26c0-.54.077-.926.155-1.235.155-.54.544-1.003.932-1.312.389-.386.933-.54 1.555-.54.854 0 1.476.231 1.864.849.389.617.622 1.39.622 2.47v7.95H36v-8.49z"/>
</svg>
