<svg height="48" width="48" xmlns="http://www.w3.org/2000/svg">
  <path d="M24 48C10.745 48 0 37.255 0 24S10.745 0 24 0s24 10.745 24 24-10.745 24-24 24zm13-30.727c-.923.53-1.923.757-2.923.909 1.154-.682 1.923-1.591 2.23-2.727-1 .454-2.153.909-3.23 1.136-.923-.985-2.154-1.591-3.692-1.591-1.385 0-2.693.606-3.616 1.515-.923.91-1.538 2.197-1.538 3.56 0 .228 0 .607.077 1.061-2.077-.075-4-.606-5.846-1.59-1.847-.985-3.462-2.122-4.616-3.713a4.579 4.579 0 0 0-.77 2.576c0 .91.232 1.743.693 2.5.539.833.923 1.364 1.693 1.818-.77 0-1.539-.227-2.308-.682v.076c0 1.212.308 2.273 1.077 3.182.769.91 1.769 1.515 2.846 1.742a6.874 6.874 0 0 1-1.308.152c-.154 0-.615 0-.923-.076.23.985.77 1.743 1.692 2.5.847.682 1.847.985 2.924.985-1.77 1.44-3.924 2.197-6.308 2.197-.308 0-.846-.076-1.154-.076C14.462 34.242 17.077 35 19.846 35c1.846 0 3.462-.303 5.077-.91 1.539-.53 3-1.363 4.077-2.272s2-2.121 2.846-3.257c.923-1.213 1.385-2.576 1.846-3.864.539-1.288.693-2.727.693-4.015v-.758c1-.757 1.846-1.666 2.615-2.651z" fill-rule="evenodd"/>
</svg>
